<svg xmlns="http://www.w3.org/2000/svg" viewBox="0 0 550 385"><defs><style>.cls-1{fill:#d3c9ab;}.cls-2{fill:#fff;}.cls-3{fill:#f7b777;}.cls-4{fill:#eda65f;}.cls-5{fill:#876459;}.cls-6{fill:#332426;}.cls-7{fill:#402d30;}.cls-8{fill:#db5555;}.cls-9{fill:#faf8f1;}.cls-10{fill:#fadd6e;}.cls-11{fill:#fcc186;}.cls-12{fill:#c27854;}.cls-13{fill:#edb276;}.cls-14{fill:#f29b98;}.cls-15{fill:#d67d7a;}.cls-16{fill:#f78e8b;}.cls-17{fill:#6298a1;}.cls-18{fill:#4f383c;}.cls-19{fill:#de4949;}.cls-20{fill:#3d2b2e;}.cls-21{fill:#878252;}.cls-22{fill:#b55839;}.cls-23{fill:#c9603f;}.cls-24{fill:#5e0e0e;}.cls-25{fill:#6b3c25;}.cls-26{fill:#c5603f;}.cls-27{fill:#3a292c;}.cls-28{fill:#997050;}.cls-29{fill:#7c5940;}.cls-30{fill:#d9998b;}.cls-31{fill:#c98e81;}.cls-32{opacity:0.5;}.cls-33{fill:#ab6767;}.cls-34{fill:#f2eddc;}.cls-35{fill:#ffe78a;}.cls-36{fill:#de5757;}.cls-37{fill:#3f5f73;}.cls-38{fill:#2c4350;}.cls-39{fill:#85472d;}</style></defs><title>free-cartoon-female-vector-avatars</title><g id="background"><rect id="color" class="cls-1" width="550" height="385"/></g><g id="avatars"><circle class="cls-2" cx="424" cy="267.5" r="65"/><path class="cls-3" d="M450.3,256.18c0-15-11.87-27.27-26.3-27.27s-26.3,12.25-26.3,27.27v29c0,15,16.51,27.27,26.3,27.27,10,0,26.3-12.25,26.3-27.37Z"/><path class="cls-4" d="M427.69,282.53a3.69,3.69,0,1,1-7.38,0Z"/><path class="cls-5" d="M458.2,307.73V258.31c0-19.86-15.36-35.81-34.2-35.81-19,0-34.2,16.12-34.2,35.81v49.42h21.55c-8.33-5.67-11.91-22.52-11.91-33.38V262.23h49.16v12.2c0,11-3,27.43-12.16,33.56Z"/><path class="cls-6" d="M397.31,265.86v3.57h1.62V272a11.51,11.51,0,0,0,11.56,11.56A11.67,11.67,0,0,0,422.16,272v-3.57a2.37,2.37,0,0,1,1.84-.76,2.23,2.23,0,0,1,1.84.76V272a11.51,11.51,0,0,0,11.56,11.56A11.67,11.67,0,0,0,449.07,272v-2.49h1.62V266Z"/><path class="cls-7" d="M429.51,272v-2.49h16.1V272a8,8,0,0,1-8.11,8.11h0A8.07,8.07,0,0,1,429.51,272Z"/><path class="cls-7" d="M410.6,280.13h0a8,8,0,0,1-8.11-8.11v-2.49h16.1V272A7.93,7.93,0,0,1,410.6,280.13Z"/><path class="cls-8" d="M425.3,297.67c1.89,0,1.41.94,4.6.94s4-1.18,4-1.18c-1.89,0-4.36-5.89-7.19-5.89-2,0-1.77.94-2.71.94h0c-.94,0-.47-.94-2.71-.94-3.06,0-5.3,5.89-7.19,5.89,0,0,1.77,3.54,4.83,3.54S422.7,297.67,425.3,297.67Z"/><path class="cls-9" d="M428.83,297.67a3.73,3.73,0,0,1-1.41-.94,17.73,17.73,0,0,1-1.53-1.18,5.31,5.31,0,0,1-1.77.71,4.35,4.35,0,0,1-1.77-.71s-.35.24-1.53,1.18a14.67,14.67,0,0,0-1.41.94Z"/><circle class="cls-2" cx="275" cy="268" r="64.5"/><path class="cls-10" d="M308.69,252.64c.06-16.2-15-29.57-33.53-29.64s-33.68,12.91-33.74,29.1l-.12,51.15,67.24-1.87Z"/><path class="cls-11" d="M301.69,255.84c0-15.24-12-27.68-26.69-27.68s-26.69,12.44-26.69,27.68v29.48c0,15.24,16.75,27.68,26.69,27.68,10.12,0,26.69-12.44,26.69-27.78Z"/><path class="cls-12" d="M281.19,270.8,280,269.08s5.74-4,10.55-3.44a9.67,9.67,0,0,1,7,4.93s-3.56-2.87-6.31-3C288.76,267.47,282.91,269.08,281.19,270.8Z"/><path class="cls-12" d="M268.69,270.8l1.26-1.72s-5.74-4-10.55-3.44a9.68,9.68,0,0,0-7,4.93s3.56-2.87,6.31-3C261.23,267.59,267,269.08,268.69,270.8Z"/><path class="cls-13" d="M278.74,283.58a3.74,3.74,0,1,1-7.49,0Z"/><path class="cls-10" d="M302.14,250.73c0-13-12.07-23.82-27-23.88S248,237.25,248,250.3l-.1,19.57L275,253l27,15Z"/><path class="cls-14" d="M275.18,240.34a26.62,26.62,0,0,1,26.58,25.22q0-.69,0-1.4a26.62,26.62,0,1,0-53.24,0q0,.7,0,1.4A26.62,26.62,0,0,1,275.18,240.34Z"/><path class="cls-14" d="M253,250.29s-7.47-9.63-4.34-21.44c0,0,10.36-1.2,18.79,11.08C267.41,239.93,258.5,242.82,253,250.29Z"/><path class="cls-15" d="M255,245s-3.71-4.79-2.15-10.65c0,0,5.15-.6,9.34,5.51A16.21,16.21,0,0,0,255,245Z"/><path class="cls-14" d="M297,250.29s7.47-9.63,4.34-21.44c0,0-10.36-1.2-18.79,11.08C282.59,239.93,291.5,242.82,297,250.29Z"/><path class="cls-15" d="M295,245s3.71-4.79,2.15-10.65c0,0-5.15-.6-9.34,5.51A16.21,16.21,0,0,1,295,245Z"/><path class="cls-16" d="M266.58,297.3c2.58-.41,3.26-3.67,4.21-5.57a2.44,2.44,0,0,1,4.21-.41,2.56,2.56,0,0,1,4.21.41c1,1.9,1.63,5.3,4.21,5.57h0c-2,.27-2.85,2.45-3.53,4.21-1.63,3.94-8.29,3.94-9.92,0-.54-1.77-1.36-3.94-3.4-4.21Zm11.14,0c-1.63-.14-2.45-.54-2.58-1.63-.14,1-1.09,1.36-2.58,1.63h0c1.63.14,2.45.54,2.58,1.63.14-1,1.09-1.49,2.58-1.63Z"/><path class="cls-9" d="M277.72,297.3h0c-1.63-.14-2.45-.54-2.58-1.63-.14,1-1.09,1.36-2.58,1.63h0c1.63.14,2.45.54,2.58,1.63C275.27,298,276.22,297.43,277.72,297.3Z"/><path class="cls-9" d="M294.66,274.66C291.31,273,284.42,269,278,277.19h0c2.43,2.23,11.25,6.18,16.62-2.53Z"/><path class="cls-9" d="M286.25,275.17a1.48,1.48,0,1,0,1.62-1.32A1.63,1.63,0,0,0,286.25,275.17Z"/><path class="cls-17" d="M290,276a3.65,3.65,0,1,1-3.65-3.65A3.65,3.65,0,0,1,290,276Z"/><path class="cls-6" d="M288.27,276a1.92,1.92,0,1,1-1.93-1.92A1.92,1.92,0,0,1,288.27,276Z"/><path class="cls-9" d="M288.44,275.37a.78.78,0,1,1-.78-.78A.78.78,0,0,1,288.44,275.37Z"/><path class="cls-9" d="M255.34,274.66c5.37,8.71,14.18,4.76,16.62,2.53h0c-6.38-8.23-13.27-4.15-16.62-2.53Z"/><path class="cls-9" d="M262.13,273.85a1.48,1.48,0,1,0,1.62,1.32A1.63,1.63,0,0,0,262.13,273.85Z"/><path class="cls-17" d="M267.3,276a3.65,3.65,0,1,1-3.65-3.65A3.65,3.65,0,0,1,267.3,276Z"/><path class="cls-6" d="M265.58,276a1.92,1.92,0,1,1-1.93-1.92A1.92,1.92,0,0,1,265.58,276Z"/><path class="cls-9" d="M265.75,275.37a.78.78,0,1,1-.78-.78A.78.78,0,0,1,265.75,275.37Z"/><path class="cls-18" d="M293.32,273.89c-3.71-2.94-11.48-4.78-15.37,3.61,0,0,5.63-9.15,15.1-.69l.61-.15,4.88-3.42Z"/><path class="cls-18" d="M256.65,273.89c3.71-2.94,11.48-4.78,15.37,3.61,0,0-5.63-9.15-15.1-.69l-.61-.15-4.88-3.42Z"/><circle class="cls-2" cx="126" cy="267.5" r="65"/><path class="cls-6" d="M160.81,253.37c.06-15.87-16.48-30.8-34.65-30.87S91.37,237,91.31,252.85l-.12,57.41h69.47Z"/><path class="cls-3" d="M152.15,256.51c0-14.93-11.8-27.12-26.15-27.12s-26.15,12.18-26.15,27.12v28.88c0,14.93,17,27.12,26.15,27.12,10.85,0,26.15-12.18,26.15-27.21Z"/><path class="cls-19" d="M134.52,296.47c-2.11,3-3.85,5-8.54,5s-6.29-2.12-8.5-5.09c0,0,3.1-3.44,5.57-3.44,1.85,0,1.85,1.49,3,1.49s1.12-1.48,3-1.47C131.57,293.12,134.52,296.47,134.52,296.47Z"/><path class="cls-4" d="M130.16,285a4.16,4.16,0,0,1-8.32,0Z"/><path class="cls-6" d="M152.59,250.86c0-12.78-11.82-23.33-26.46-23.39s-26.58,10.19-26.62,23l-.1,19.81L126,247.62l26.47,20.8Z"/><path class="cls-20" d="M122.37,270.11c.77.11,1.32-1.21.66-2-.55-.55-13-4.5-15.38-3.19s-5.49,6.81-5.49,6.81,4.5-4.28,6.48-5.05S120.95,270,122.37,270.11Z"/><path class="cls-20" d="M129.63,270.11c-.77.11-1.32-1.21-.66-2,.55-.55,13-4.5,15.38-3.19s5.49,6.81,5.49,6.81-4.5-4.28-6.48-5.05S131.05,270,129.63,270.11Z"/><path class="cls-19" d="M127.83,262.28a1.83,1.83,0,1,1-1.83-1.83A1.83,1.83,0,0,1,127.83,262.28Z"/><path class="cls-9" d="M146.37,272.6c-3.2-1.55-9.79-5.44-15.89,2.42h0c2.33,2.13,10.67,5.88,15.89-2.42Z"/><path class="cls-9" d="M138.33,273.08a1.41,1.41,0,1,0,1.55-1.26A1.56,1.56,0,0,0,138.33,273.08Z"/><path class="cls-21" d="M141.92,273.86a3.49,3.49,0,1,1-3.49-3.49A3.49,3.49,0,0,1,141.92,273.86Z"/><path class="cls-6" d="M140.27,273.86a1.84,1.84,0,1,1-1.84-1.84A1.84,1.84,0,0,1,140.27,273.86Z"/><path class="cls-9" d="M140.43,273.28a.74.74,0,1,1-.74-.74A.74.74,0,0,1,140.43,273.28Z"/><path class="cls-6" d="M147.09,272.9c-3.52-3.41-13.39-5-17.12,3,0,0,6.35-8.66,15.57-1.25Z"/><path class="cls-9" d="M105.63,272.6c5.22,8.3,13.56,4.55,15.89,2.42h0c-6.1-7.87-12.69-4-15.89-2.42Z"/><path class="cls-9" d="M112.12,271.82a1.41,1.41,0,1,0,1.55,1.26A1.56,1.56,0,0,0,112.12,271.82Z"/><path class="cls-21" d="M113.57,270.37a3.49,3.49,0,1,1-3.49,3.49A3.49,3.49,0,0,1,113.57,270.37Z"/><path class="cls-6" d="M113.57,272a1.84,1.84,0,1,1-1.84,1.84A1.84,1.84,0,0,1,113.57,272Z"/><path class="cls-9" d="M112.31,272.53a.74.74,0,1,1-.74.74A.74.74,0,0,1,112.31,272.53Z"/><path class="cls-6" d="M104.91,272.9c3.52-3.41,13.39-5,17.12,3,0,0-6.35-8.66-15.57-1.25Z"/><circle class="cls-2" cx="424" cy="117.5" r="65"/><ellipse class="cls-22" cx="424" cy="84.52" rx="18.98" ry="14.52"/><path class="cls-3" d="M444.93,134h5.4a7.11,7.11,0,1,0,.08-14.23H445"/><path class="cls-3" d="M403,119.76h-5.4a7.11,7.11,0,1,0,.08,14.23h5.4"/><path class="cls-3" d="M450.52,108.2c0-15.15-12-27.51-26.52-27.51S397.48,93,397.48,108.2v29.3c0,15.15,16.79,27.51,26.52,27.51s26.52-12.36,26.52-27.61Z"/><path class="cls-4" d="M427.77,134.65h-7.43a1.14,1.14,0,0,0,0,2.28h1.74a2.06,2.06,0,0,0,1.92,1.26,2.12,2.12,0,0,0,1.92-1.26h1.74a1.1,1.1,0,0,0,1.14-1.14C428.73,135.13,428.37,134.65,427.77,134.65Z"/><path class="cls-23" d="M434.46,148.91s-4-7.36-7.47-7.36c-2.64,0-3,1.72-3,1.72h0s-.23-1.72-3-1.72c-3.45,0-7.47,7.36-7.47,7.36s4.48,6.9,10.46,6.9S434.46,148.91,434.46,148.91Z"/><path class="cls-9" d="M424,151.56a17.28,17.28,0,0,0,8.28-2.42,15.9,15.9,0,0,1-3.91-2.07,16.61,16.61,0,0,0-2.07-1.49,6.44,6.44,0,0,1-2.41.92,6.05,6.05,0,0,1-2.41-1A16.63,16.63,0,0,0,419.4,147a15.93,15.93,0,0,1-3.91,2.07,18.16,18.16,0,0,0,8.51,2.53"/><path class="cls-24" d="M424,149.36a16.34,16.34,0,0,1-6.18-1.38,19.59,19.59,0,0,1-2.33,1.05,18.75,18.75,0,0,0,8.51,2.53,17.86,17.86,0,0,0,8.28-2.42,12.93,12.93,0,0,1-2.39-1.09A14.36,14.36,0,0,1,424,149.36Z"/><path class="cls-25" d="M430.16,115.36,429,113.65s5.7-4,10.49-3.42a9.61,9.61,0,0,1,7,4.9s-3.53-2.85-6.27-3C437.68,112.05,431.87,113.65,430.16,115.36Z"/><path class="cls-25" d="M417.73,115.36l1.25-1.71s-5.7-4-10.49-3.42a9.62,9.62,0,0,0-7,4.9s3.53-2.85,6.27-3C410.32,112.17,416,113.65,417.73,115.36Z"/><path class="cls-26" d="M452.32,102.61c0-13.08-12.68-23.88-28.17-23.93s-28.78,10.42-28.83,23.5v31.44l5.4-19.3,41.44-11.18,10.16,30.47Z"/><path class="cls-6" d="M451.43,118.95h-2.74v-4.88H437.59a11.05,11.05,0,0,0-10.85,8.84,5.13,5.13,0,0,0-5.67,0,11.11,11.11,0,0,0-10.85-8.9H399.13v4.88h-2.68v1.83h2.68v4.39a11.09,11.09,0,0,0,22.19,0V125l.06.06a3.43,3.43,0,0,1,5.24,0h0a11.09,11.09,0,0,0,22.19,0v-4.39h2.74v-1.77Z"/><path class="cls-27" d="M410.23,134.43a9.2,9.2,0,0,1-9.2-9.2V116h9.2a9.2,9.2,0,0,1,0,18.41Z"/><path class="cls-27" d="M446.86,125.23a9.23,9.23,0,1,1-9.2-9.2h9.2v9.2Z"/><circle class="cls-2" cx="275" cy="117.5" r="65" transform="translate(-0.92 2.17) rotate(-0.45)"/><path class="cls-28" d="M298.15,122.73h-.06a24.47,24.47,0,0,0-2-7.24c-.64.41-1.29.94-1.86.85-.95-.16-1.56-2-2.5-2.22s-2.3,1.16-3.22.88-1.27-2.19-2.17-2.54-2.44.83-3.31.43-1-2.34-1.81-2.81-2.53.49-3.34,0-1.64-3.16-1.78-3.2-.93,2.69-1.73,3.23-2.51-.39-3.34.09-.9,2.42-1.76,2.84-2.43-.73-3.32-.37-1.22,2.27-2.13,2.57-2.3-1.06-3.23-.82-1.52,2.09-2.46,2.25-2.14-1.36-3.09-1.26a2.57,2.57,0,0,0-1.31.91,24.5,24.5,0,0,0-1.72,6.82h-.06a6.22,6.22,0,0,0,0,12.43l0,3.09a24.46,24.46,0,0,0,5.29,15,22.58,22.58,0,0,0,36.07-.28,24.61,24.61,0,0,0,5.06-15.21l0-3a6.22,6.22,0,0,0-.2-12.43Z"/><path class="cls-6" d="M318,115.1c0-1-1.74-1.86-1.81-2.81s1.5-2.11,1.36-3-2-1.6-2.17-2.54,1.2-2.29.93-3.2-2.17-1.32-2.5-2.22.88-2.43.49-3.3-2.33-1-2.78-1.86.53-2.52,0-3.34-2.44-.68-3-1.46.19-2.57-.42-3.31-2.51-.34-3.17-1-.16-2.57-.87-3.22-2.54,0-3.29-.6-.51-2.52-1.3-3.08-2.51.35-3.34-.15-.85-2.43-1.7-2.87-2.44.69-3.32.31-1.17-2.3-2.08-2.61-2.32,1-3.25.76-1.47-2.11-2.42-2.3-2.16,1.32-3.12,1.2-1.75-1.89-2.71-2-2,1.61-2.92,1.61-2-1.64-2.95-1.57-1.74,1.86-2.68,2-2.2-1.35-3.13-1.15-1.46,2.08-2.38,2.34-2.36-1-3.26-.71-1.16,2.26-2,2.64-2.48-.7-3.33-.26-.85,2.39-1.66,2.89-2.55-.36-3.33.2-.51,2.48-1.25,3.1-2.58,0-3.28.65-.17,2.53-.82,3.24-2.56.34-3.16,1.09.18,2.53-.37,3.32-2.49.68-3,1.5.52,2.48.08,3.34-2.37,1-2.75,1.9.85,2.39.54,3.3-2.21,1.33-2.46,2.26,1.17,2.24,1,3.19-2,1.61-2.13,2.58,1.47,2.06,1.41,3-1.77,1.87-1.76,2.84,1.73,1.86,1.8,2.81-1.5,2.1-1.36,3,2,1.6,2.17,2.54-1.2,2.29-.93,3.2,2.17,1.32,2.5,2.22-.87,2.43-.48,3.3,2.33,1,2.77,1.85-.53,2.53,0,3.34,2.44.68,3,1.46-.18,2.57.43,3.31,2.51.34,3.17,1,.16,2.57.87,3.22,2.54,0,3.28.6.51,2.52,1.3,3.08,2.51-.35,3.34.15.85,2.43,1.7,2.87a2.69,2.69,0,0,0,1.77-.17,24.46,24.46,0,0,1-5.29-15l0-3.09a6.22,6.22,0,0,1,0-12.43H252a24.5,24.5,0,0,1,1.72-6.82,2.57,2.57,0,0,1,1.31-.91c1-.1,2.15,1.43,3.09,1.26s1.53-2,2.46-2.25,2.32,1.12,3.23.82,1.24-2.21,2.13-2.57,2.45.79,3.32.37.92-2.36,1.76-2.84,2.53.45,3.34-.09,1.59-3.19,1.73-3.23,1,2.68,1.78,3.2,2.5-.43,3.34,0,.94,2.41,1.81,2.81,2.42-.77,3.31-.43,1.25,2.25,2.17,2.54,2.29-1.1,3.22-.88,1.55,2.06,2.5,2.22c.57.09,1.23-.43,1.86-.85a24.47,24.47,0,0,1,2,7.24h.06a6.22,6.22,0,0,1,.2,12.43l0,3a24.61,24.61,0,0,1-5.06,15.21,2.67,2.67,0,0,0,1.77.14c.85-.45.84-2.39,1.66-2.89s2.55.36,3.33-.2.51-2.48,1.25-3.1,2.58,0,3.28-.65.17-2.53.82-3.24,2.55-.34,3.16-1.09-.18-2.53.37-3.32,2.49-.68,3-1.5-.52-2.48-.08-3.34,2.37-1,2.75-1.9-.85-2.39-.54-3.3,2.21-1.32,2.46-2.26-1.17-2.24-1-3.19,2-1.61,2.13-2.58-1.47-2.06-1.41-3S318,116.07,318,115.1Z"/><path class="cls-29" d="M278.75,135.61l-7.1.06a1.09,1.09,0,0,0,0,2.17h1.66a2,2,0,0,0,1.84,1.19A2,2,0,0,0,277,137.8h1.66a1.05,1.05,0,0,0,1.08-1.1C279.67,136.06,279.32,135.6,278.75,135.61Z"/><path class="cls-30" d="M274.8,92.23A25.62,25.62,0,0,1,300.32,114h.29a25.64,25.64,0,1,0-51.28.4h.29A25.62,25.62,0,0,1,274.8,92.23Z"/><path class="cls-31" d="M284.26,147.76c-2.23,3.2-3.94,4.95-9,5s-6.65-1.68-9.06-4.84c0,0,3.15-4.27,5.8-4.29,2,0,2,1.58,3.2,1.57s1.18-1.6,3.17-1.62C281.18,143.67,284.26,147.76,284.26,147.76Z"/><g class="cls-32"><path class="cls-33" d="M284.13,147.76a38.32,38.32,0,0,0-17.78.14c-.24.06,0,.92.21.86a37.46,37.46,0,0,1,17.38-.14C284.17,148.67,284.37,147.82,284.13,147.76Z"/></g><path class="cls-34" d="M301,120.43l-2.6,0,0-4.62-10.51.08a10.47,10.47,0,0,0-10.21,8.45,4.86,4.86,0,0,0-5.37,0,10.52,10.52,0,0,0-10.34-8.35l-10.51.08,0,4.62-2.54,0v1.73l2.54,0,0,4.16a10.51,10.51,0,0,0,21-.17v-.06l.06.06a3.25,3.25,0,0,1,5,0h0a10.51,10.51,0,0,0,21-.17l0-4.16,2.6,0v-1.67Z"/><path class="cls-27" d="M262.09,135.4a8.71,8.71,0,0,1-8.79-8.65l0-4.16v-1.73l0-2.83L262,118a8.72,8.72,0,0,1,.14,17.44Z"/><path class="cls-27" d="M296.72,126.41a8.75,8.75,0,1,1-8.79-8.65l8.72-.07,0,2.83v1.73Z"/><circle class="cls-2" cx="126" cy="117.5" r="65"/><path class="cls-35" d="M93.63,74.5S98,78,99,82a22.38,22.38,0,0,0-2.58-.32C78.22,80.47,67.88,107.44,80,126c0,0,.81-18.41,12.51-26.56a14.41,14.41,0,0,1,9.36-2.58c2.34.24,4.92,1.13,6.94-2.83S108.81,77,93.63,74.5Z"/><path class="cls-36" d="M113.25,91.94l-4-5L100.17,98l10.17,5.81Z"/><path class="cls-35" d="M143.19,94c2,4,4.6,3.07,6.94,2.83a14.41,14.41,0,0,1,9.36,2.58C171.2,107.6,172,126,172,126c12.11-18.57,1.78-45.53-16.47-44.32A22.38,22.38,0,0,0,153,82c1-4,5.41-7.51,5.41-7.51C143.19,77,141.17,90.08,143.19,94Z"/><path class="cls-36" d="M141.66,103.8,151.83,98l-9.12-11.06-4,5Z"/><path class="cls-3" d="M145.62,137.42h5.07a6.67,6.67,0,1,0,.07-13.34h-5.07"/><path class="cls-3" d="M106.31,124.09h-5.07a6.67,6.67,0,1,0,.07,13.34h5.07"/><path class="cls-3" d="M150.87,113.25c0-14.2-11.22-25.79-24.87-25.79S101.13,99,101.13,113.25v27.46c0,14.2,15.74,25.79,24.87,25.79s24.87-11.59,24.87-25.88Z"/><path class="cls-4" d="M129.54,138h-7a1.07,1.07,0,0,0,0,2.13h1.63a1.93,1.93,0,0,0,1.8,1.18,2,2,0,0,0,1.8-1.18h1.63a1,1,0,0,0,1.07-1.07C130.44,138.5,130.1,138,129.54,138Z"/><path class="cls-36" d="M135.81,151.42s-3.77-6.9-7-6.9c-2.48,0-2.8,1.62-2.8,1.62h0s-.22-1.62-2.8-1.62c-3.23,0-7,6.9-7,6.9s4.2,6.47,9.81,6.47S135.81,151.42,135.81,151.42Z"/><path class="cls-9" d="M126,153.9a16.2,16.2,0,0,0,7.76-2.26,14.91,14.91,0,0,1-3.66-1.94,15.57,15.57,0,0,0-1.94-1.4,6,6,0,0,1-2.26.86,5.68,5.68,0,0,1-2.26-1,15.59,15.59,0,0,0-1.94,1.4,14.93,14.93,0,0,1-3.67,1.94,17,17,0,0,0,8,2.37"/><path class="cls-24" d="M126,151.84a15.32,15.32,0,0,1-5.8-1.3,18.37,18.37,0,0,1-2.18,1,17.58,17.58,0,0,0,8,2.37,16.74,16.74,0,0,0,7.76-2.26,12.12,12.12,0,0,1-2.24-1A13.46,13.46,0,0,1,126,151.84Z"/><path class="cls-12" d="M131.77,119.1l-1.07-1.6s5.34-3.74,9.83-3.21a9,9,0,0,1,6.52,4.6s-3.31-2.67-5.88-2.78C138.82,116,133.37,117.49,131.77,119.1Z"/><path class="cls-12" d="M120.12,119.1l1.18-1.6s-5.34-3.74-9.83-3.21a9,9,0,0,0-6.52,4.6s3.31-2.67,5.88-2.78C113.18,116.1,118.52,117.49,120.12,119.1Z"/><path class="cls-35" d="M99.11,137.08l9.52-28.57L147.49,119l5.06,18.09V107.6c0-12.26-12.5-22.09-27-22S99.07,95.75,99.11,108Z"/><path class="cls-37" d="M139.63,118.41c-4.28,0-8.81,2.35-10.25,6.5a13.38,13.38,0,0,0-6.78.33c-1.29-4.4-5.8-7-10.32-7.05-5.71,0-10.82.32-10.84,5.31a16,16,0,0,0,4.24,10.84,10,10,0,0,0,7.12,3.36,10.24,10.24,0,0,0,10.14-8.76,13.31,13.31,0,0,1,6.07-.33,10.1,10.1,0,0,0,10.07,9.19,10.38,10.38,0,0,0,7.15-3.18,16.15,16.15,0,0,0,4.32-10.81C150.45,118.8,145.46,118.43,139.63,118.41Z"/><path class="cls-38" d="M110.5,119.71c-3.65,0-7.33,1.17-7.33,3.79a14.57,14.57,0,0,0,3.78,9.67,8.33,8.33,0,0,0,5.89,2.82h0c3.9,0,8.2-2.86,8.39-7.12a28,28,0,0,0-.3-3.26C120.37,121.54,115.28,119.71,110.5,119.71Z"/><path class="cls-38" d="M141.5,119.71c-4.78,0-9.87,1.83-10.47,5.91a28,28,0,0,0-.3,3.26c.19,4.26,4.49,7.12,8.39,7.12h0a8.33,8.33,0,0,0,5.89-2.82,14.57,14.57,0,0,0,3.78-9.67C148.83,120.89,145.15,119.71,141.5,119.71Z"/><circle class="cls-39" cx="135.28" cy="144.52" r="0.91"/></g></svg>