<svg xmlns="http://www.w3.org/2000/svg" viewBox="0 0 550 385"><defs><style>.cls-1{fill:#f1e8d7;}.cls-2{fill:#fff;}.cls-3{fill:#997050;}.cls-4{fill:#332426;}.cls-5{fill:#7c5940;}.cls-6{fill:#f7b777;}.cls-7{fill:#bd2a42;}.cls-8{fill:#db9958;}.cls-9{fill:#3a292c;}.cls-10{fill:#dd314e;}.cls-11{fill:#4a3132;}.cls-12{fill:#9e4822;}.cls-13{fill:#c1582a;}.cls-14{fill:#78361a;}.cls-15{fill:#b51f38;}.cls-16{fill:#00dbef;}.cls-17{fill:#00a9b8;}.cls-18{fill:#653614;}</style></defs><title>free-cool-male-vector-avatars</title><g id="background"><rect id="color" class="cls-1" width="550" height="385"/></g><g id="avatars"><circle class="cls-2" cx="424" cy="267.5" r="65"/><path class="cls-3" d="M455.56,258.35v-8a24.7,24.7,0,0,0-.23-3.08c-.05-1.46-.18-2.32-.41-2.32h0c-2.95-12.75-15.75-22.46-31-22.46-16.66,0-30.4,11.64-31.4,26.16,0,.09-.08.18-.1.27a42.63,42.63,0,0,0,0,8v1.41a4.69,4.69,0,0,0-4.44,4.52v8.72c0,2.61,2.24,4.59,5.19,4.59h1c.69,6,1.4,11.13,1.84,13,1.12,5.12,7.53,11.24,10.07,13.49a3.94,3.94,0,0,0,2.64,1h30.92a3.76,3.76,0,0,0,2.64-1c2.54-2.34,8.85-8.27,10.07-13.49.39-1.7.95-6.84,1.48-13h1c2.95,0,5.19-2,5.19-4.59v-8.72A4.69,4.69,0,0,0,455.56,258.35Z"/><path class="cls-4" d="M433.14,283.37H414.69a5.21,5.21,0,0,0-5.09,5.3V307.2a5.21,5.21,0,0,0,5.09,5.3h18.63a5.21,5.21,0,0,0,5.09-5.3V288.67A5.3,5.3,0,0,0,433.14,283.37Zm1.64,17.17a2.37,2.37,0,0,1-2.33,2.43H427.1v-8.9q0-.54-.52-.54h-5.26q-.52,0-.52.54V303H416a2.37,2.37,0,0,1-2.33-2.43v-7.28a2.37,2.37,0,0,1,2.33-2.43h16.56a2.37,2.37,0,0,1,2.33,2.43C434.78,293.26,434.78,300.54,434.78,300.54Z"/><path class="cls-5" d="M429.12,272.57l-1.38-10.25a3.69,3.69,0,0,0-3.83-3.44,3.76,3.76,0,0,0-3.83,3.44l-1.38,10.25c-1.24,0-3.91,2.61-3.91,3.72a2,2,0,0,0,2.14,1.92h3.26a3.89,3.89,0,0,0,3.6,2.13,4,4,0,0,0,3.6-2.13h3.26a2,2,0,0,0,2.14-1.92C432.68,275.18,430.24,272.57,429.12,272.57Z"/><path class="cls-2" d="M446.14,257.73a6.44,6.44,0,1,1-12.88,0"/><path d="M443.66,257.73a3.84,3.84,0,0,1-7.68,0"/><path class="cls-4" d="M444.11,251.41H426.6a6.85,6.85,0,0,0,6.89,6.89H451A7,7,0,0,0,444.11,251.41Z"/><path class="cls-2" d="M401.86,257.73a6.44,6.44,0,1,0,12.88,0"/><path d="M404.34,257.73a3.84,3.84,0,1,0,7.68,0"/><path class="cls-4" d="M403.89,251.41H421.4a6.85,6.85,0,0,1-6.89,6.89H397A7,7,0,0,1,403.89,251.41Z"/><circle class="cls-2" cx="275" cy="267.5" r="65"/><path class="cls-6" d="M307.27,251.21H305v-6.57a22.12,22.12,0,0,0-22.14-22.14H267a22.12,22.12,0,0,0-22.14,22.14v6.57h-2.25A3.71,3.71,0,0,0,239,254.9v8.37a3.71,3.71,0,0,0,3.69,3.69h2.25v19.89h60.21V266.78h2.25a3.71,3.71,0,0,0,3.69-3.69v-8.37A3.82,3.82,0,0,0,307.27,251.21Z"/><path class="cls-4" d="M295.48,279.2a10.37,10.37,0,0,0-10.26-10.53H264.69a10.32,10.32,0,0,0-10.26,10.53l-9.54-10.62v23.76a20.13,20.13,0,0,0,20.16,20.16h19.89a20.13,20.13,0,0,0,20.16-20.16V268.58Zm-10.26,6.12c-5.13,0-5.58-4-10.26-4s-5.13,4-10.26,4a6.3,6.3,0,0,1,0-12.6h20.52a6.3,6.3,0,0,1,0,12.6Z"/><path class="cls-7" d="M280.81,274.43H269.19c-.72,0-.81.45-.81.81,0,2.07,3,3.6,6.66,3.6s6.66-1.71,6.66-3.6C281.62,274.88,281.53,274.43,280.81,274.43Z"/><path class="cls-8" d="M280.45,261.2h-2.52V250.49a3.09,3.09,0,0,0-3.06-3.06,3.15,3.15,0,0,0-3.06,3.06V261.2h-2.52a1.71,1.71,0,0,0,0,3.42h2.61a3.09,3.09,0,0,0,2.88,1.89,3.19,3.19,0,0,0,2.88-1.89h2.61a1.65,1.65,0,0,0,1.71-1.71C281.89,261.92,281.35,261.2,280.45,261.2Z"/><path d="M261.07,241.45H248.9v8.33h20.5C269.5,245.29,267.37,241.45,261.07,241.45Z"/><path d="M289,241.45H301.1v8.33H280.6C280.6,245.29,282.74,241.45,289,241.45Z"/><path class="cls-9" d="M298.68,244.49H287.54a6.44,6.44,0,0,0-5.62,3H268.38a7.22,7.22,0,0,0-5.62-3H251.62a7.19,7.19,0,0,0-7.22,7.22v4.41a8.73,8.73,0,0,0,8.73,8.73h3.41a13.3,13.3,0,0,0,13.24-13.24,3.1,3.1,0,0,0-.1-.9h10.63c0,.2-.1.6-.1.9a13.3,13.3,0,0,0,13.24,13.24h3.41a8.73,8.73,0,0,0,8.73-8.73v-4.41A7.2,7.2,0,0,0,298.68,244.49Z"/><circle class="cls-2" cx="126" cy="267.5" r="65"/><path class="cls-6" d="M99.78,281.87v4.32a26.31,26.31,0,0,0,52.61,0V249.26a26.31,26.31,0,1,0-52.61,0v32.61Z"/><path class="cls-4" d="M89.15,301.6c3.42,0,14.23,8.91,18.29,8.91h8.92c-10.72-5-16.4-24.41-16.4-35.49v-4.59h32.88A18.4,18.4,0,0,0,151.23,252v22.88c0,11-5.77,30.54-16.4,35.49h9.73c4.14,0,14.86-8.91,18.29-8.91l-.45-42.79a36.31,36.31,0,0,0-72.61,0Z"/><path class="cls-6" d="M149.54,283.39h2.25a3.71,3.71,0,0,0,3.69-3.69v-8.37a3.82,3.82,0,0,0-3.78-3.51h-2.25"/><path class="cls-6" d="M102.46,267.72h-2.25a3.71,3.71,0,0,0-3.69,3.69v8.37a3.71,3.71,0,0,0,3.69,3.69h2.25"/><path class="cls-10" d="M118.16,294.48a8.22,8.22,0,0,0,7.93,6.31,8,8,0,0,0,7.93-6.31Z"/><path class="cls-11" d="M126,294.57a8.63,8.63,0,0,0,7.12,3.06c3,0,5.5-.9,6.94-3.24l-8.56-8.29h0a7.51,7.51,0,0,0-10.81,0l-8.47,8.38a8.19,8.19,0,0,0,6.94,3.24c2.88,0,5.68-1,7.12-3.06"/><path class="cls-8" d="M122,278.54c-.9,1.53-3.51,3.78-3.51,5.5a2.85,2.85,0,0,0,1.17,2.52,1.81,1.81,0,0,1,3.06,0,3.6,3.6,0,0,0,6.13,0,1.85,1.85,0,0,1,3.06,0,3.7,3.7,0,0,0,1.17-2.52c0-1.8-2.43-4.05-3.51-5.5a12.7,12.7,0,0,1-2.07-5,1.44,1.44,0,0,0-2.88,0A10.18,10.18,0,0,1,122,278.54Z"/><circle class="cls-2" cx="424" cy="117.5" r="65"/><path class="cls-6" d="M456.27,103.2H454.6v-.1a31,31,0,0,0-.58-6v-.49l-.22-.43a29.35,29.35,0,0,0-8.25-14.64A30.41,30.41,0,0,0,394.4,95.48c-.17.38-.35.77-.51,1.15v1.16a30.5,30.5,0,0,0-.49,5.32v.1h-1.76a3.71,3.71,0,0,0-3.69,3.69v8.37a3.71,3.71,0,0,0,3.69,3.69h1.76v13a30.5,30.5,0,0,0,.49,5.32v1.62h.33a30.56,30.56,0,0,0,59.55,0h.33v-1.62a30.5,30.5,0,0,0,.49-5.32V118.77h1.76a3.71,3.71,0,0,0,3.69-3.69v-8.37A3.82,3.82,0,0,0,456.27,103.2Z"/><path class="cls-2" d="M443.19,106.61a5.58,5.58,0,1,1-11.16,0"/><path d="M441,106.61a3.33,3.33,0,0,1-6.66,0"/><path class="cls-2" d="M404.81,106.61a5.58,5.58,0,1,0,11.16,0"/><path d="M407,106.61a3.33,3.33,0,1,0,6.66,0"/><path class="cls-8" d="M425.44,107.61a1.44,1.44,0,0,0-2.88,0,12.64,12.64,0,0,1-2.16,5c-1,1.53-3.6,3.69-3.6,5.4a3.32,3.32,0,0,0,1.17,2.43,1.85,1.85,0,0,1,3,0A3.63,3.63,0,0,0,424,122a3.76,3.76,0,0,0,3.06-1.62,1.76,1.76,0,0,1,3,0A2.9,2.9,0,0,0,431.2,118c0-1.8-2.52-4-3.6-5.4A12.64,12.64,0,0,1,425.44,107.61Z"/><path class="cls-12" d="M411,103.77H399.7v3.35h19.08C418.88,105.32,416.89,103.77,411,103.77Z"/><path class="cls-12" d="M437.07,103.77H448.3v3.35H429.22C429.22,105.32,431.21,103.77,437.07,103.77Z"/><path class="cls-13" d="M450.86,137.59c-3.08,0-5.28-1.62-6.93-4.75S439.74,123,430.27,123H417.62c-9.36,0-12.11,6.72-13.65,9.85s-3.74,4.75-6.93,4.75a9.79,9.79,0,0,1-3.63-.81c3.19,14.71,15.74,25.72,30.6,25.72s27.41-11,30.6-25.72A11.44,11.44,0,0,1,450.86,137.59Z"/><path class="cls-14" d="M412.3,130.81A11.65,11.65,0,0,0,424,141.86a11.79,11.79,0,0,0,11.7-11.06Z"/><path class="cls-2" d="M432.94,131.45A2.91,2.91,0,0,1,430,134.4H418.1a2.91,2.91,0,0,1-2.95-2.95v-.64h17.69v.64Z"/><path class="cls-15" d="M430.91,139.74a10.68,10.68,0,0,0-6.91-2.4,11.21,11.21,0,0,0-6.91,2.4A12,12,0,0,0,424,142,13.44,13.44,0,0,0,430.91,139.74Z"/><circle class="cls-2" cx="275" cy="117.5" r="65"/><path class="cls-4" d="M316,114.79c0,.92-1.64,1.78-1.7,2.69s1.44,2,1.32,2.89-1.86,1.55-2,2.44,1.16,2.17.91,3-2.06,1.27-2.36,2.13.85,2.31.49,3.14-2.21,1-2.63,1.79.53,2.4.05,3.18-2.32.67-2.85,1.41.2,2.45-.38,3.16-2.39.34-3,1-.14,2.45-.8,3.08-2.42,0-3.13.59-.47,2.41-1.21,2.94-2.39-.31-3.18.16-.79,2.32-1.6,2.75-2.33-.63-3.17-.27-4.18,1.55-5.06,1.8-4.35,1-5.26,1.09-4.45.36-5.37.36-4.47-.24-5.37-.36-4.39-.84-5.27-1.09-4.23-1.44-5.07-1.8-2.36.69-3.17.27-.82-2.27-1.6-2.75-2.43.36-3.18-.16-.5-2.36-1.21-2.94-2.46,0-3.12-.59-.18-2.41-.8-3.08-2.44-.3-3-1,.15-2.41-.38-3.16-2.37-.63-2.85-1.41.48-2.37.05-3.18-2.26-.94-2.63-1.78.79-2.28.49-3.14-2.11-1.24-2.36-2.13,1.1-2.14.91-3-1.92-1.52-2-2.43,1.38-2,1.32-2.89-1.7-1.77-1.7-2.69,1.64-1.78,1.7-2.69-1.44-2-1.32-2.89,1.86-1.55,2-2.44-1.16-2.17-.91-3,2.06-1.27,2.36-2.13-.85-2.31-.49-3.14,2.21-1,2.63-1.78-.53-2.4-.05-3.18,2.32-.66,2.85-1.41-.2-2.45.38-3.16,2.39-.34,3-1,.14-2.45.8-3.08,2.42,0,3.13-.59.47-2.41,1.21-2.94,2.39.31,3.18-.16.79-2.32,1.6-2.75,2.33.63,3.17.27,1.1-2.2,2-2.5,2.22,1,3.1.7,1.39-2,2.29-2.21,2.06,1.24,3,1.12,1.65-1.82,2.57-1.88,1.88,1.52,2.8,1.52,1.89-1.58,2.8-1.52,1.67,1.76,2.57,1.88,2.09-1.31,3-1.12,1.41,2,2.29,2.21,2.24-1,3.1-.7,1.13,2.14,2,2.5,2.36-.69,3.17-.27.82,2.27,1.6,2.75,2.43-.36,3.18.16.5,2.36,1.21,2.94,2.46,0,3.13.59.18,2.41.81,3.08,2.44.3,3,1-.15,2.41.38,3.16,2.37.63,2.85,1.41-.48,2.37-.05,3.18,2.27.94,2.63,1.79-.8,2.28-.49,3.14,2.11,1.24,2.36,2.13-1.1,2.15-.91,3,1.92,1.52,2,2.43-1.38,2-1.32,2.89S316,113.87,316,114.79Z"/><path class="cls-3" d="M299,121.21a24.16,24.16,0,0,0-48,0,3.93,3.93,0,0,0-3.94,4v7.65a3.92,3.92,0,0,0,3.75,4V137a24.16,24.16,0,0,0,48.33-.09v-.09a3.92,3.92,0,0,0,3.75-4v-7.65A3.93,3.93,0,0,0,299,121.21Z"/><path class="cls-4" d="M263.66,143.66a10.38,10.38,0,0,0,3.27,5.48h16.13a10.42,10.42,0,0,0,3.28-5.48Z"/><path class="cls-10" d="M266.93,149.15a14,14,0,0,0,16.13,0s-2.75-1.65-8.07-1.65S266.93,149.15,266.93,149.15Z"/><rect class="cls-2" x="263.66" y="141.95" width="22.68" height="1.65"/><path class="cls-5" d="M279.81,131.42h-9.46a1.45,1.45,0,0,0,0,2.9h2.21a2.62,2.62,0,0,0,2.44,1.6,2.7,2.7,0,0,0,2.44-1.6h2.21a1.4,1.4,0,0,0,1.45-1.45C281,132,280.57,131.42,279.81,131.42Z"/><path class="cls-4" d="M279.36,117.46c-.79-.09-1.31-1.31,0-2.09s8.72-3.75,12-2.79,4.45,5.41,4.45,5.41-5-2.44-8.72-2.27S280.15,117.64,279.36,117.46Z"/><path class="cls-4" d="M270.64,117.46c.79-.09,1.31-1.31,0-2.09s-8.72-3.66-12-2.7-4.45,5.41-4.45,5.41,5-2.44,8.72-2.27C266.63,115.81,269.85,117.64,270.64,117.46Z"/><path class="cls-16" d="M291,136.65a12,12,0,0,1-11.38-8.35L276.26,118H291a9.32,9.32,0,0,1,0,18.64Z"/><path class="cls-17" d="M291,134.46h0a7.07,7.07,0,0,0,7.08-7.08h0a7.07,7.07,0,0,0-7.08-7.08H279.3l2.45,7.42A10,10,0,0,0,291,134.46Z"/><path class="cls-16" d="M259,136.65a11.94,11.94,0,0,0,11.38-8.35L273.74,118H259a9.32,9.32,0,0,0,0,18.64Z"/><path class="cls-17" d="M259,134.46h0a7.07,7.07,0,0,1-7.08-7.08h0a7.07,7.07,0,0,1,7.08-7.08h11.64l-2.45,7.42A9.78,9.78,0,0,1,259,134.46Z"/><path class="cls-16" d="M270.87,122.65h8.35v2.45h-8.35Z"/><circle class="cls-2" cx="126" cy="117.5" r="65"/><path class="cls-6" d="M158.27,103.2H156V96.63C149.51,83.16,140.4,74,133.88,74.49H118c-4.86-.45-17.65,11.42-22.14,22.14v6.57H93.64A3.71,3.71,0,0,0,90,106.89v8.37a3.71,3.71,0,0,0,3.69,3.69h2.25v19.89h60.21V118.77h2.25a3.71,3.71,0,0,0,3.69-3.69v-8.37A3.82,3.82,0,0,0,158.27,103.2Z"/><path class="cls-18" d="M98.31,120V103.1c0-10.3,4.58-20.4,16-20.4A17.3,17.3,0,0,1,126,87.18a17.61,17.61,0,0,1,11.66-4.48c11.45,0,16,10.1,16,20.4V120h2.91V103.1a29.61,29.61,0,0,0-9.06-21.54A30.47,30.47,0,0,0,95.4,103.1V120Z"/><path class="cls-18" d="M153.69,117.2v15.56a6.38,6.38,0,0,1-3.23.94c-2.71,0-4.79-1.56-6.25-4.16S140.36,121,131.83,121H120.17c-8.53,0-10.82,5.83-12.39,8.53s-3.54,4.16-6.24,4.16a7.75,7.75,0,0,1-3.23-.73V117.2H95.4v14.7a30.6,30.6,0,1,0,61.2,0V117.2Z"/><path class="cls-6" d="M133.78,131H118.09c-1,0-1.09.61-1.09,1.1,0,2.8,4,4.86,9,4.86s9-2.31,9-4.86C134.88,131.65,134.76,131,133.78,131Z"/><path class="cls-2" d="M145.19,106.61a5.58,5.58,0,1,1-11.16,0"/><path d="M143,106.61a3.33,3.33,0,0,1-6.66,0"/><path d="M143.43,101.13H128.25a5.93,5.93,0,0,0,6,6H149.4A6.06,6.06,0,0,0,143.43,101.13Z"/><path class="cls-2" d="M106.81,106.61a5.58,5.58,0,1,0,11.16,0"/><path d="M109,106.61a3.33,3.33,0,1,0,6.66,0"/><path d="M108.57,101.13h15.18a5.93,5.93,0,0,1-6,6H102.6A6.06,6.06,0,0,1,108.57,101.13Z"/><path class="cls-8" d="M127.44,105.81a1.44,1.44,0,0,0-2.88,0,12.64,12.64,0,0,1-2.16,5c-1,1.53-3.6,3.69-3.6,5.4a3.32,3.32,0,0,0,1.17,2.43,1.85,1.85,0,0,1,3,0,3.63,3.63,0,0,0,3.06,1.62,3.76,3.76,0,0,0,3.06-1.62,1.76,1.76,0,0,1,3,0,2.9,2.9,0,0,0,1.17-2.43c0-1.8-2.52-4-3.6-5.4A12.64,12.64,0,0,1,127.44,105.81Z"/></g></svg>