<?xml version="1.0" encoding="iso-8859-1"?>
<!-- Generator: Adobe Illustrator 19.0.0, SVG Export Plug-In . SVG Version: 6.00 Build 0)  -->
<svg version="1.1" id="Layer_1" xmlns="http://www.w3.org/2000/svg" xmlns:xlink="http://www.w3.org/1999/xlink" x="0px" y="0px"
	 viewBox="0 0 512 512" style="enable-background:new 0 0 512 512;" xml:space="preserve">
<g>
	<g>
		<g>
			<path d="M339.417,302.307c-17.623,0-33.45,8.559-43.26,21.934c-9.81-13.373-25.637-21.934-43.26-21.934
				c-29.565,0-53.618,24.053-53.618,53.618c0,22.087,15.796,46.735,46.949,73.254c22.121,18.833,43.924,31.705,44.841,32.244
				c1.541,0.905,3.305,1.382,5.093,1.382c1.788,0,3.543-0.478,5.084-1.382c0.918-0.539,22.719-13.411,44.841-32.244
				c31.153-26.52,46.949-51.167,46.949-73.254C393.035,326.36,368.982,302.307,339.417,302.307z M296.154,441.021
				c-25.407-15.91-76.797-54.428-76.797-85.095c0-18.494,15.046-33.54,33.54-33.54c16.979,0,31.291,12.696,33.291,29.533
				c0.6,5.051,4.883,8.855,9.969,8.855c5.086,0,9.37-3.804,9.969-8.855c2-16.837,16.312-29.533,33.291-29.533
				c18.493,0,33.54,15.046,33.54,33.54C372.957,386.54,321.557,425.094,296.154,441.021z"/>
			<path d="M462.306,0H100.894c-5.545,0-10.039,4.496-10.039,10.039v32.627H49.694c-5.545,0-10.039,4.496-10.039,10.039v45.177
				c0,5.544,4.495,10.039,10.039,10.039h41.161v25.098H49.694c-5.545,0-10.039,4.496-10.039,10.039v45.176
				c0,5.544,4.495,10.039,10.039,10.039h41.161v25.098H49.694c-5.545,0-10.039,4.496-10.039,10.039v45.176
				c0,5.544,4.495,10.039,10.039,10.039h41.161v25.098H49.694c-5.545,0-10.039,4.496-10.039,10.039v45.177
				c0,5.544,4.495,10.039,10.039,10.039h41.161v25.098H49.694c-5.545,0-10.039,4.496-10.039,10.039v45.176
				c0,5.544,4.495,10.039,10.039,10.039h41.161v32.627c0,5.544,4.495,10.039,10.039,10.039h361.412
				c5.545,0,10.039-4.496,10.039-10.039V10.039C472.345,4.496,467.851,0,462.306,0z M360.408,20.078h40.157V228.88l-12.471-10.894
				c-3.688-3.222-9.164-3.312-12.957-0.213l-14.73,12.037V20.078z M59.733,87.843V62.745h60.235v25.098H59.733z M59.733,178.196
				v-25.098h60.235v25.098H59.733z M59.733,268.549v-25.098h60.235v25.098H59.733z M59.733,358.902v-25.098h60.235v25.098H59.733z
				 M59.733,449.255v-25.098h60.235v25.098H59.733z M452.268,491.922L452.268,491.922H110.933v-22.588h19.075
				c5.545,0,10.039-4.496,10.039-10.039v-45.176c0-5.544-4.495-10.039-10.039-10.039h-19.075V378.98h19.075
				c5.545,0,10.039-4.496,10.039-10.039v-45.177c0-5.544-4.495-10.039-10.039-10.039h-19.075v-25.098h19.075
				c5.545,0,10.039-4.496,10.039-10.039v-45.176c0-5.544-4.495-10.039-10.039-10.039h-19.075v-25.098h19.075
				c5.545,0,10.039-4.496,10.039-10.039v-45.176c0-5.544-4.495-10.039-10.039-10.039h-19.075v-25.098h19.075
				c5.545,0,10.039-4.496,10.039-10.039V52.706c0-5.544-4.495-10.039-10.039-10.039h-19.075V20.078h229.396V250.98
				c0,3.878,2.234,7.409,5.737,9.07c3.506,1.661,7.652,1.158,10.655-1.297l24.553-20.064L404,258.541
				c1.865,1.629,4.223,2.479,6.607,2.479c1.406,0,2.821-0.295,4.15-0.9c3.585-1.628,5.887-5.203,5.887-9.14V20.078h31.624V491.922z"
				/>
			<path d="M255.498,123.817h36.977c5.545,0,10.039-4.496,10.039-10.039c0-5.544-4.495-10.039-10.039-10.039h-36.977
				c-5.545,0-10.039,4.496-10.039,10.039C245.459,119.321,249.953,123.817,255.498,123.817z"/>
			<path d="M190.076,123.817h29.281c5.545,0,10.039-4.496,10.039-10.039c0-5.544-4.495-10.039-10.039-10.039h-29.28
				c-5.545,0-10.039,4.496-10.039,10.039C180.037,119.321,184.532,123.817,190.076,123.817z"/>
			<path d="M292.476,143.895h-0.67c-5.545,0-10.039,4.496-10.039,10.039c0,5.544,4.495,10.039,10.039,10.039h0.67
				c5.545,0,10.039-4.496,10.039-10.039C302.515,148.391,298.02,143.895,292.476,143.895z"/>
			<path d="M190.076,163.974h68.685c5.545,0,10.039-4.496,10.039-10.039c0-5.544-4.495-10.039-10.039-10.039h-68.685
				c-5.545,0-10.039,4.496-10.039,10.039C180.036,159.478,184.532,163.974,190.076,163.974z"/>
			<path d="M302.515,194.091c0-5.544-4.495-10.039-10.039-10.039h-102.4c-5.545,0-10.039,4.496-10.039,10.039
				c0,5.544,4.495,10.039,10.039,10.039h102.4C298.02,204.13,302.515,199.635,302.515,194.091z"/>
		</g>
	</g>
</g>
<g>
</g>
<g>
</g>
<g>
</g>
<g>
</g>
<g>
</g>
<g>
</g>
<g>
</g>
<g>
</g>
<g>
</g>
<g>
</g>
<g>
</g>
<g>
</g>
<g>
</g>
<g>
</g>
<g>
</g>
</svg>
